<svg width="144" height="144" viewBox="0 0 144 144" fill="none" xmlns="http://www.w3.org/2000/svg">
<rect width="144" height="144" rx="72" fill="#2F190D" fill-opacity="0.15"/>
<rect x="24" y="24" width="96" height="96" rx="48" fill="#100218"/>
<g clip-path="url(#clip0_10_267)">
<path d="M64 80L72 72L80 80M72 72V90M88.78 84.78C90.7307 83.7165 92.2717 82.0338 93.1598 79.9972C94.0478 77.9607 94.2324 75.6865 93.6844 73.5334C93.1364 71.3803 91.887 69.471 90.1334 68.1069C88.3797 66.7428 86.2217 66.0015 84 66H81.48C80.8746 63.6585 79.7463 61.4847 78.1799 59.642C76.6135 57.7993 74.6497 56.3357 72.4362 55.3612C70.2227 54.3867 67.8171 53.9267 65.4002 54.0158C62.9834 54.1048 60.6181 54.7406 58.4824 55.8753C56.3466 57.0101 54.4958 58.6142 53.0693 60.5672C51.6427 62.5201 50.6774 64.7711 50.246 67.1508C49.8146 69.5305 49.9282 71.9771 50.5784 74.3065C51.2287 76.636 52.3985 78.7877 54 80.6" stroke="#FFEEEC" stroke-width="4" stroke-linecap="round" stroke-linejoin="round"/>
</g>
<defs>
<clipPath id="clip0_10_267">
<rect width="48" height="48" fill="white" transform="translate(48 48)"/>
</clipPath>
</defs>
</svg>
